# xmcd
#
# Track frame offsets: 
#        150
#        15286
#        31707
#        43937
#        54989
#        72482
#        94260
#        108301
#        116400
#        126674
#        141102
#        154582
#        164678
#        176657
#        194273
#        204837
#
# Disc length: 2806 seconds
#
# Revision: 1
# Processed by: cddbd v1.5.2PL0 Copyright (c) Steve Scherf et al.
# Submitted via: ExactAudioCopyFreeDBPlugin 1.0
#
DISCID=da0af410
DTITLE=Alexandru Andries - Ninge iar (Editie Speciala)
DYEAR=2007
DGENRE=Jazz
TTITLE0=Decembrie
TTITLE1=Vis cu ingeri
TTITLE2=Ninge iar ...
TTITLE3=A venit Mos Craciun
TTITLE4=Anotimp friguros
TTITLE5=Vine iarna
TTITLE6=Surpriza, surpriza
TTITLE7=La multi ani !!!
TTITLE8=Doamne, fa pamantul alb
TTITLE9=Glob de-argint
TTITLE10=Cand ninge afara
TTITLE11=E anul nou ...
TTITLE12=De departe vin
TTITLE13=La panda
TTITLE14=Stirea zilei
TTITLE15=Mister ...
EXTD=YEAR: 2007
EXTT0=
EXTT1=
EXTT2=
EXTT3=
EXTT4=
EXTT5=
EXTT6=
EXTT7=
EXTT8=
EXTT9=
EXTT10=
EXTT11=
EXTT12=
EXTT13=
EXTT14=
EXTT15=
PLAYORDER=
